# xmcd
#
# Track frame offsets: 
#        150
#        67350
#        87206
#        192206
#
# Disc length: 3629 seconds
#
# Revision: 1
# Processed by: cddbd v1.5.2PL0 Copyright (c) Steve Scherf et al.
# Submitted via: ExactAudioCopy v0.99pb3
#
DISCID=340e2b04
DTITLE=Colin Andrew Sheffield - First Thus
DYEAR=2004
DGENRE=Avantgarde
TTITLE0=miles away
TTITLE1=come closer
TTITLE2=disappear from view
TTITLE3=like a memory
EXTD=YEAR: 2004
EXTT0=
EXTT1=
EXTT2=
EXTT3=
PLAYORDER=
